<svg width="32" height="32" viewBox="0 0 32 32" fill="none" xmlns="http://www.w3.org/2000/svg">
  <rect width="32" height="32" rx="8" fill="url(#gradient)"/>
  <path d="M8 12C8 9.79086 9.79086 8 12 8H20C22.2091 8 24 9.79086 24 12V20C24 22.2091 22.2091 24 20 24H12C9.79086 24 8 22.2091 8 20V12Z" fill="white"/>
  <circle cx="16" cy="16" r="4" fill="url(#gradient)"/>
  <path d="M14 16C14 15.4477 14.4477 15 15 15H17C17.5523 15 18 15.4477 18 16C18 16.5523 17.5523 17 17 17H15C14.4477 17 14 16.5523 14 16Z" fill="white"/>
  <defs>
    <linearGradient id="gradient" x1="0" y1="0" x2="32" y2="32" gradientUnits="userSpaceOnUse">
      <stop stop-color="#8B5CF6"/>
      <stop offset="1" stop-color="#EC4899"/>
    </linearGradient>
  </defs>
</svg>
